<?xml version="1.0" encoding="UTF-8" standalone="no"?>
<!-- Created with Inkscape (http://www.inkscape.org/) -->

<svg
   version="1.1"
   id="svg2"
   width="469.77734"
   height="149.24696"
   viewBox="0 0 469.77735 149.24697"
   sodipodi:docname="connections.svg"
   inkscape:version="1.4 (e7c3feb100, 2024-10-09)"
   xmlns:inkscape="http://www.inkscape.org/namespaces/inkscape"
   xmlns:sodipodi="http://sodipodi.sourceforge.net/DTD/sodipodi-0.dtd"
   xmlns="http://www.w3.org/2000/svg"
   xmlns:svg="http://www.w3.org/2000/svg">
  <defs
     id="defs6" />
  <sodipodi:namedview
     id="namedview4"
     pagecolor="#ffffff"
     bordercolor="#666666"
     borderopacity="1.0"
     inkscape:pageshadow="2"
     inkscape:pageopacity="0.0"
     inkscape:pagecheckerboard="0"
     showgrid="false"
     inkscape:zoom="1.9966906"
     inkscape:cx="221.86712"
     inkscape:cy="114.68978"
     inkscape:window-width="2560"
     inkscape:window-height="1371"
     inkscape:window-x="0"
     inkscape:window-y="32"
     inkscape:window-maximized="1"
     inkscape:current-layer="g8"
     fit-margin-top="0"
     fit-margin-left="0"
     fit-margin-right="0"
     fit-margin-bottom="0"
     inkscape:showpageshadow="2"
     inkscape:deskcolor="#d1d1d1" />
  <g
     inkscape:groupmode="layer"
     inkscape:label="Image"
     id="g8"
     transform="translate(6.0090938,5.1972752)">
    <rect
       style="fill:#ffffff;fill-opacity:1;fill-rule:evenodd;stroke:none;stroke-width:0.377953;stroke-linejoin:round;stroke-miterlimit:7"
       id="rect1"
       width="469.77734"
       height="149.24696"
       x="-6.0090938"
       y="-5.1972752" />
    <circle
       style="fill:none;fill-rule:evenodd;stroke:#000000;stroke-width:1.5;stroke-linecap:round;stroke-linejoin:round;stroke-miterlimit:4;stroke-dasharray:none;stroke-dashoffset:0;stroke-opacity:1"
       id="path1147-5"
       cx="82.637939"
       cy="59.768433"
       r="11.23819" />
    <circle
       style="fill:none;fill-rule:evenodd;stroke:#000000;stroke-width:1.5;stroke-linecap:round;stroke-linejoin:round;stroke-miterlimit:4;stroke-dasharray:none;stroke-dashoffset:0;stroke-opacity:1"
       id="path1147-3-3"
       cx="82.593063"
       cy="59.70311"
       r="7.3557701" />
    <circle
       style="fill:none;fill-rule:evenodd;stroke:#000000;stroke-width:1.5;stroke-linecap:round;stroke-linejoin:round;stroke-miterlimit:4;stroke-dasharray:none;stroke-dashoffset:0;stroke-opacity:1"
       id="path34"
       cx="56.123615"
       cy="55.933777"
       r="55.372765" />
    <path
       style="fill:none;fill-rule:evenodd;stroke:#000000;stroke-width:1.5;stroke-linecap:round;stroke-linejoin:round;stroke-miterlimit:4;stroke-dasharray:none;stroke-dashoffset:0;stroke-opacity:1"
       id="path989"
       sodipodi:type="arc"
       sodipodi:cx="56.326088"
       sodipodi:cy="56.03582"
       sodipodi:rx="46.819523"
       sodipodi:ry="46.819523"
       sodipodi:start="2.6396176"
       sodipodi:end="0.50202815"
       sodipodi:open="true"
       sodipodi:arc-type="arc"
       d="m 15.282504,78.563402 a 46.819523,46.819523 0 0 1 11.208511,-58.609934 46.819523,46.819523 0 0 1 59.672062,0.0016 46.819523,46.819523 0 0 1 11.205398,58.610529" />
    <path
       style="fill:none;fill-rule:evenodd;stroke:#000000;stroke-width:1.5;stroke-linecap:butt;stroke-linejoin:miter;stroke-miterlimit:4;stroke-dasharray:none;stroke-opacity:1"
       d="m 15.282504,78.563402 82.085971,0.0022"
       id="path1123" />
    <circle
       style="fill:none;fill-rule:evenodd;stroke:#000000;stroke-width:1.5;stroke-linecap:round;stroke-linejoin:round;stroke-miterlimit:4;stroke-dasharray:none;stroke-dashoffset:0;stroke-opacity:1"
       id="path1147"
       cx="28.317581"
       cy="59.768929"
       r="11.23819" />
    <circle
       style="fill:none;fill-rule:evenodd;stroke:#000000;stroke-width:1.5;stroke-linecap:round;stroke-linejoin:round;stroke-miterlimit:4;stroke-dasharray:none;stroke-dashoffset:0;stroke-opacity:1"
       id="path1147-3"
       cx="28.272707"
       cy="59.703602"
       r="7.3557701" />
    <circle
       style="fill:none;fill-rule:evenodd;stroke:#000000;stroke-width:1.5;stroke-linecap:round;stroke-linejoin:round;stroke-miterlimit:4;stroke-dasharray:none;stroke-dashoffset:0;stroke-opacity:1"
       id="path1147-6"
       cx="55.443607"
       cy="59.791496"
       r="11.23819" />
    <circle
       style="fill:none;fill-rule:evenodd;stroke:#000000;stroke-width:1.5;stroke-linecap:round;stroke-linejoin:round;stroke-miterlimit:4;stroke-dasharray:none;stroke-dashoffset:0;stroke-opacity:1"
       id="path1147-3-7"
       cx="55.398731"
       cy="59.72617"
       r="7.3557701" />
    <g
       aria-label="3    2     1"
       id="text3134"
       style="font-size:16px;line-height:125%;font-family:'Liberation Sans';-inkscape-font-specification:'Liberation Sans';letter-spacing:0px;word-spacing:0px;stroke-width:1px;stop-color:#000000">
      <path
         d="m 33.532877,39.129921 q 0,1.546875 -1.015625,2.390625 -1.015625,0.84375 -2.890625,0.84375 -1.773438,0 -2.820313,-0.8125 -1.046875,-0.820313 -1.226562,-2.359375 l 2.234375,-0.195313 q 0.210937,1.585938 1.804687,1.585938 0.789063,0 1.226563,-0.390625 0.4375,-0.390625 0.4375,-1.195313 0,-0.734375 -0.53125,-1.125 -0.53125,-0.390625 -1.578125,-0.390625 h -0.765625 v -1.773437 h 0.71875 q 0.945312,0 1.421875,-0.382813 0.476562,-0.390625 0.476562,-1.109375 0,-0.679687 -0.382812,-1.0625 -0.375,-0.390625 -1.101563,-0.390625 -0.679687,0 -1.101562,0.375 -0.414063,0.375 -0.476563,1.0625 l -2.195312,-0.15625 q 0.171875,-1.421875 1.179687,-2.226562 1.007813,-0.804688 2.632813,-0.804688 1.726562,0 2.695312,0.78125 0.976563,0.773438 0.976563,2.148438 0,1.03125 -0.609375,1.695312 -0.601563,0.664063 -1.742188,0.882813 v 0.03125 q 1.265625,0.148437 1.945313,0.835937 0.6875,0.679688 0.6875,1.742188 z"
         style="font-weight:bold;-inkscape-font-specification:'Liberation Sans Bold'"
         id="path158596" />
      <path
         d="m 52.446939,42.184608 v -1.523437 q 0.429688,-0.945313 1.21875,-1.84375 0.796875,-0.898438 2,-1.875 1.15625,-0.9375 1.617188,-1.546875 0.46875,-0.609375 0.46875,-1.195313 0,-1.4375 -1.445313,-1.4375 -0.703125,0 -1.078125,0.382813 -0.367187,0.375 -0.476562,1.132812 l -2.210938,-0.125 q 0.1875,-1.53125 1.140625,-2.335937 0.960938,-0.804688 2.609375,-0.804688 1.78125,0 2.734375,0.8125 0.953125,0.8125 0.953125,2.28125 0,0.773438 -0.304687,1.398438 -0.304688,0.625 -0.78125,1.15625 -0.476563,0.523437 -1.0625,0.984375 -0.578125,0.460937 -1.125,0.898437 -0.546875,0.4375 -1,0.882813 -0.445313,0.445312 -0.664063,0.953125 h 5.109375 v 1.804687 z"
         style="font-weight:bold;-inkscape-font-specification:'Liberation Sans Bold'"
         id="path158598" />
      <path
         d="m 80.320646,42.184608 v -1.632812 h 2.726563 v -7.507813 l -2.640625,1.648438 v -1.726563 l 2.757812,-1.789062 h 2.078125 v 9.375 h 2.523438 v 1.632812 z"
         style="font-weight:bold;-inkscape-font-specification:'Liberation Sans Bold'"
         id="path158600" />
    </g>
    <g
       aria-label="N64, facing plug               SNES, facing socket"
       id="text47300"
       style="font-size:16px;line-height:125%;font-family:'Liberation Sans';-inkscape-font-specification:'Liberation Sans';letter-spacing:0px;word-spacing:0px;stroke-width:1px;stop-color:#000000">
      <path
         d="m 8.7992702,134.48065 -4.796875,-8.47656 q 0.140625,1.23437 0.140625,1.98437 v 6.49219 h -2.046875 v -11.00781 h 2.6328125 l 4.8671875,8.54687 q -0.140625,-1.17968 -0.140625,-2.14843 v -6.39844 h 2.0468748 v 11.00781 z"
         style="font-weight:bold;-inkscape-font-specification:'Liberation Sans Bold'"
         id="path158621" />
      <path
         d="m 20.900833,130.87909 q 0,1.75781 -0.984375,2.75781 -0.984375,1 -2.71875,1 -1.945313,0 -2.992188,-1.35937 -1.039062,-1.36719 -1.039062,-4.04688 0,-2.94531 1.054687,-4.42969 1.0625,-1.49218 3.03125,-1.49218 1.398438,0 2.203125,0.61718 0.8125,0.61719 1.148438,1.91407 l -2.070313,0.28906 q -0.296875,-1.08594 -1.328125,-1.08594 -0.882812,0 -1.390625,0.88281 -0.5,0.88282 -0.5,2.67969 0.351563,-0.58594 0.976563,-0.89844 0.625,-0.3125 1.414062,-0.3125 1.476563,0 2.335938,0.9375 0.859375,0.9375 0.859375,2.54688 z m -2.203125,0.0625 q 0,-0.9375 -0.4375,-1.42969 -0.429688,-0.5 -1.1875,-0.5 -0.726563,0 -1.164063,0.46875 -0.4375,0.46094 -0.4375,1.22656 0,0.96094 0.453125,1.59375 0.460938,0.625 1.203125,0.625 0.742188,0 1.15625,-0.52343 0.414063,-0.53125 0.414063,-1.46094 z"
         style="font-weight:bold;-inkscape-font-specification:'Liberation Sans Bold'"
         id="path158623" />
      <path
         d="m 28.822708,132.23846 v 2.24219 h -2.09375 v -2.24219 h -5.007813 v -1.64843 l 4.648438,-7.11719 h 2.453125 v 7.13281 h 1.46875 v 1.63281 z m -2.09375,-5.23437 q 0,-0.42188 0.02344,-0.91406 0.03125,-0.49219 0.04687,-0.63282 -0.203125,0.4375 -0.734375,1.26563 l -2.554687,3.88281 h 3.21875 z"
         style="font-weight:bold;-inkscape-font-specification:'Liberation Sans Bold'"
         id="path158625" />
      <path
         d="m 33.752395,133.96503 q 0,0.9375 -0.203125,1.65625 -0.195312,0.71875 -0.640625,1.33593 h -1.445312 q 0.460937,-0.55468 0.75,-1.21875 0.289062,-0.66406 0.289062,-1.25781 h -1.007812 v -2.38281 h 2.257812 z"
         style="font-weight:bold;-inkscape-font-specification:'Liberation Sans Bold'"
         id="path158627" />
      <path
         d="m 42.963333,127.5119 v 6.96875 h -2.1875 v -6.96875 h -1.234375 v -1.48437 h 1.234375 v -0.88282 q 0,-1.14843 0.609375,-1.70312 0.609375,-0.55469 1.851562,-0.55469 0.617188,0 1.390625,0.125 v 1.41406 q -0.320312,-0.0703 -0.640625,-0.0703 -0.5625,0 -0.796875,0.22656 -0.226562,0.21875 -0.226562,0.78125 v 0.66407 h 1.664062 v 1.48437 z"
         style="font-weight:bold;-inkscape-font-specification:'Liberation Sans Bold'"
         id="path158629" />
      <path
         d="m 47.666458,134.6369 q -1.226563,0 -1.914063,-0.66406 -0.6875,-0.67188 -0.6875,-1.88281 0,-1.3125 0.851563,-2 0.859375,-0.6875 2.484375,-0.70313 l 1.820312,-0.0312 v -0.42969 q 0,-0.82812 -0.289062,-1.22656 -0.289063,-0.40625 -0.945313,-0.40625 -0.609375,0 -0.898437,0.28125 -0.28125,0.27344 -0.351563,0.91406 l -2.289062,-0.10937 q 0.210937,-1.23438 1.125,-1.86719 0.921875,-0.64062 2.507812,-0.64062 1.601563,0 2.46875,0.78906 0.867188,0.78906 0.867188,2.24219 v 3.07812 q 0,0.71094 0.15625,0.98438 0.164062,0.26562 0.539062,0.26562 0.25,0 0.484375,-0.0469 v 1.1875 q -0.195312,0.0469 -0.351562,0.0859 -0.15625,0.0391 -0.3125,0.0625 -0.15625,0.0234 -0.335938,0.0391 -0.171875,0.0156 -0.40625,0.0156 -0.828125,0 -1.226562,-0.40625 -0.390625,-0.40625 -0.46875,-1.19531 h -0.04687 q -0.921875,1.66406 -2.78125,1.66406 z m 2.554687,-4.07031 -1.125,0.0156 q -0.765625,0.0312 -1.085937,0.17188 -0.320313,0.13281 -0.492188,0.41406 -0.164062,0.28125 -0.164062,0.75 0,0.60156 0.273437,0.89844 0.28125,0.28906 0.742188,0.28906 0.515625,0 0.9375,-0.28125 0.429687,-0.28125 0.671875,-0.77344 0.242187,-0.5 0.242187,-1.05468 z"
         style="font-weight:bold;-inkscape-font-specification:'Liberation Sans Bold'"
         id="path158631" />
      <path
         d="m 58.135208,134.6369 q -1.921875,0 -2.96875,-1.14062 -1.046875,-1.14844 -1.046875,-3.19532 0,-2.09375 1.054687,-3.25781 1.054688,-1.17187 2.992188,-1.17187 1.492187,0 2.46875,0.75 0.976562,0.75 1.226562,2.07031 l -2.210937,0.10937 q -0.09375,-0.64843 -0.46875,-1.03125 -0.375,-0.39062 -1.0625,-0.39062 -1.695313,0 -1.695313,2.83594 0,2.92187 1.726563,2.92187 0.625,0 1.046875,-0.39062 0.421875,-0.39844 0.523437,-1.17969 l 2.203125,0.10156 q -0.117187,0.86719 -0.625,1.54688 -0.5,0.67968 -1.320312,1.05468 -0.820313,0.36719 -1.84375,0.36719 z"
         style="font-weight:bold;-inkscape-font-specification:'Liberation Sans Bold'"
         id="path158633" />
      <path
         d="m 63.510208,124.50409 v -1.61719 h 2.195312 v 1.61719 z m 0,9.97656 v -8.45312 h 2.195312 v 8.45312 z"
         style="font-weight:bold;-inkscape-font-specification:'Liberation Sans Bold'"
         id="path158635" />
      <path
         d="m 73.432083,134.48065 v -4.74219 q 0,-2.22656 -1.507813,-2.22656 -0.796875,0 -1.289062,0.6875 -0.484375,0.67969 -0.484375,1.75 v 4.53125 H 67.95552 v -6.5625 q 0,-0.67969 -0.02344,-1.10937 -0.01563,-0.4375 -0.03906,-0.78125 h 2.09375 q 0.02344,0.14843 0.0625,0.79687 0.03906,0.64063 0.03906,0.88281 h 0.03125 q 0.445312,-0.96875 1.117187,-1.40625 0.671875,-0.4375 1.601563,-0.4375 1.34375,0 2.0625,0.82813 0.71875,0.82812 0.71875,2.42187 v 5.36719 z"
         style="font-weight:bold;-inkscape-font-specification:'Liberation Sans Bold'"
         id="path158637" />
      <path
         d="m 81.26802,137.87128 q -1.546875,0 -2.492187,-0.59375 -0.9375,-0.58594 -1.15625,-1.67969 l 2.195312,-0.25781 q 0.117188,0.50781 0.5,0.79687 0.390625,0.28906 1.015625,0.28906 0.914063,0 1.335938,-0.5625 0.421875,-0.5625 0.421875,-1.67187 v -0.44531 l 0.01563,-0.83594 h -0.01563 q -0.726563,1.55469 -2.71875,1.55469 -1.476563,0 -2.289063,-1.10938 -0.8125,-1.10937 -0.8125,-3.17187 0,-2.07032 0.835938,-3.19532 0.835937,-1.125 2.429687,-1.125 1.84375,0 2.554688,1.52344 h 0.03906 q 0,-0.27344 0.03125,-0.74219 0.03906,-0.46875 0.07813,-0.61718 h 2.078125 q -0.04687,0.84375 -0.04687,1.95312 v 6.24219 q 0,1.80469 -1.023437,2.72656 -1.023438,0.92188 -2.976563,0.92188 z m 1.835938,-7.73438 q 0,-1.30469 -0.46875,-2.03125 -0.460938,-0.73437 -1.320313,-0.73437 -1.757812,0 -1.757812,2.8125 0,2.75781 1.742187,2.75781 0.875,0 1.335938,-0.72656 0.46875,-0.73438 0.46875,-2.07813 z"
         style="font-weight:bold;-inkscape-font-specification:'Liberation Sans Bold'"
         id="path158639" />
      <path
         d="m 99.947708,130.21503 q 0,2.11718 -0.851563,3.27343 -0.84375,1.14844 -2.390625,1.14844 -0.890625,0 -1.554687,-0.38281 -0.65625,-0.39063 -1.007813,-1.11719 h -0.04687 q 0.04687,0.23438 0.04687,1.42188 v 3.24218 h -2.195312 v -9.82812 q 0,-1.19531 -0.0625,-1.94531 h 2.132812 q 0.03906,0.14062 0.0625,0.55468 0.03125,0.41407 0.03125,0.82032 h 0.03125 q 0.742188,-1.55469 2.703125,-1.55469 1.476563,0 2.289063,1.14062 0.8125,1.13282 0.8125,3.22657 z m -2.289063,0 q 0,-2.84375 -1.742187,-2.84375 -0.875,0 -1.34375,0.76562 -0.460938,0.76563 -0.460938,2.14063 0,1.36718 0.460938,2.11718 0.46875,0.74219 1.328125,0.74219 1.757812,0 1.757812,-2.92187 z"
         style="font-weight:bold;-inkscape-font-specification:'Liberation Sans Bold'"
         id="path158641" />
      <path
         d="M 101.72115,134.48065 V 122.8869 h 2.19531 v 11.59375 z"
         style="font-weight:bold;-inkscape-font-specification:'Liberation Sans Bold'"
         id="path158643" />
      <path
         d="m 108.23677,126.02753 v 4.74218 q 0,2.22657 1.5,2.22657 0.79688,0 1.28125,-0.67969 0.49219,-0.6875 0.49219,-1.75781 v -4.53125 h 2.19531 v 6.5625 q 0,1.07812 0.0625,1.89062 h -2.09375 q -0.0937,-1.125 -0.0937,-1.67969 h -0.0391 q -0.4375,0.96094 -1.11719,1.39844 -0.67187,0.4375 -1.60156,0.4375 -1.34375,0 -2.0625,-0.82031 -0.71875,-0.82813 -0.71875,-2.42188 v -5.36718 z"
         style="font-weight:bold;-inkscape-font-specification:'Liberation Sans Bold'"
         id="path158645" />
      <path
         d="m 119.47896,137.87128 q -1.54688,0 -2.49219,-0.59375 -0.9375,-0.58594 -1.15625,-1.67969 l 2.19531,-0.25781 q 0.11719,0.50781 0.5,0.79687 0.39063,0.28906 1.01563,0.28906 0.91406,0 1.33594,-0.5625 0.42187,-0.5625 0.42187,-1.67187 v -0.44531 l 0.0156,-0.83594 h -0.0156 q -0.72656,1.55469 -2.71875,1.55469 -1.47656,0 -2.28906,-1.10938 -0.8125,-1.10937 -0.8125,-3.17187 0,-2.07032 0.83594,-3.19532 0.83593,-1.125 2.42968,-1.125 1.84375,0 2.55469,1.52344 h 0.0391 q 0,-0.27344 0.0312,-0.74219 0.0391,-0.46875 0.0781,-0.61718 h 2.07812 q -0.0469,0.84375 -0.0469,1.95312 v 6.24219 q 0,1.80469 -1.02344,2.72656 -1.02344,0.92188 -2.97656,0.92188 z m 1.83594,-7.73438 q 0,-1.30469 -0.46875,-2.03125 -0.46094,-0.73437 -1.32032,-0.73437 -1.75781,0 -1.75781,2.8125 0,2.75781 1.74219,2.75781 0.875,0 1.33594,-0.72656 0.46875,-0.73438 0.46875,-2.07813 z"
         style="font-weight:bold;-inkscape-font-specification:'Liberation Sans Bold'"
         id="path158647" />
      <path
         d="m 201.32271,131.30878 q 0,1.61718 -1.20313,2.47656 -1.19531,0.85156 -3.51562,0.85156 -2.11719,0 -3.32031,-0.75 -1.20313,-0.75 -1.54688,-2.27344 l 2.22656,-0.36718 q 0.22657,0.875 0.88282,1.27343 0.65625,0.39063 1.82031,0.39063 2.41406,0 2.41406,-1.46875 0,-0.46875 -0.28125,-0.77344 -0.27344,-0.30469 -0.78125,-0.50781 -0.5,-0.20313 -1.92969,-0.49219 -1.23437,-0.28906 -1.71875,-0.46094 -0.48437,-0.17968 -0.875,-0.41406 -0.39062,-0.24219 -0.66406,-0.57812 -0.27344,-0.33594 -0.42969,-0.78907 -0.14843,-0.45312 -0.14843,-1.03906 0,-1.49219 1.11718,-2.28125 1.125,-0.79687 3.26563,-0.79687 2.04687,0 3.07031,0.64062 1.03125,0.64063 1.32813,2.11719 l -2.23438,0.30469 q -0.17187,-0.71094 -0.70312,-1.07032 -0.52344,-0.35937 -1.50782,-0.35937 -2.09375,0 -2.09375,1.3125 0,0.42969 0.21875,0.70312 0.22657,0.27344 0.66407,0.46875 0.4375,0.1875 1.77343,0.47657 1.58594,0.33593 2.26563,0.625 0.6875,0.28125 1.08594,0.66406 0.39843,0.375 0.60937,0.90625 0.21094,0.52344 0.21094,1.21094 z"
         style="font-weight:bold;-inkscape-font-specification:'Liberation Sans Bold'"
         id="path158649" />
      <path
         d="m 209.72115,134.48065 -4.79688,-8.47656 q 0.14063,1.23437 0.14063,1.98437 v 6.49219 h -2.04688 v -11.00781 h 2.63281 l 4.86719,8.54687 q -0.14062,-1.17968 -0.14062,-2.14843 v -6.39844 h 2.04687 v 11.00781 z"
         style="font-weight:bold;-inkscape-font-specification:'Liberation Sans Bold'"
         id="path158651" />
      <path
         d="m 214.57271,134.48065 v -11.00781 h 8.65625 v 1.78125 h -6.35156 v 2.76562 h 5.875 v 1.78125 h -5.875 v 2.89844 h 6.67187 v 1.78125 z"
         style="font-weight:bold;-inkscape-font-specification:'Liberation Sans Bold'"
         id="path158653" />
      <path
         d="m 234.22115,131.30878 q 0,1.61718 -1.20313,2.47656 -1.19531,0.85156 -3.51562,0.85156 -2.11719,0 -3.32032,-0.75 -1.20312,-0.75 -1.54687,-2.27344 l 2.22656,-0.36718 q 0.22656,0.875 0.88281,1.27343 0.65625,0.39063 1.82032,0.39063 2.41406,0 2.41406,-1.46875 0,-0.46875 -0.28125,-0.77344 -0.27344,-0.30469 -0.78125,-0.50781 -0.5,-0.20313 -1.92969,-0.49219 -1.23437,-0.28906 -1.71875,-0.46094 -0.48437,-0.17968 -0.875,-0.41406 -0.39062,-0.24219 -0.66406,-0.57812 -0.27344,-0.33594 -0.42969,-0.78907 -0.14844,-0.45312 -0.14844,-1.03906 0,-1.49219 1.11719,-2.28125 1.125,-0.79687 3.26563,-0.79687 2.04687,0 3.07031,0.64062 1.03125,0.64063 1.32812,2.11719 l -2.23437,0.30469 q -0.17188,-0.71094 -0.70313,-1.07032 -0.52343,-0.35937 -1.50781,-0.35937 -2.09375,0 -2.09375,1.3125 0,0.42969 0.21875,0.70312 0.22656,0.27344 0.66406,0.46875 0.4375,0.1875 1.77344,0.47657 1.58594,0.33593 2.26563,0.625 0.6875,0.28125 1.08593,0.66406 0.39844,0.375 0.60938,0.90625 0.21094,0.52344 0.21094,1.21094 z"
         style="font-weight:bold;-inkscape-font-specification:'Liberation Sans Bold'"
         id="path158655" />
      <path
         d="m 238.22115,133.96503 q 0,0.9375 -0.20313,1.65625 -0.19531,0.71875 -0.64062,1.33593 h -1.44532 q 0.46094,-0.55468 0.75,-1.21875 0.28907,-0.66406 0.28907,-1.25781 h -1.00782 v -2.38281 h 2.25782 z"
         style="font-weight:bold;-inkscape-font-specification:'Liberation Sans Bold'"
         id="path158657" />
      <path
         d="m 247.43208,127.5119 v 6.96875 h -2.1875 v -6.96875 h -1.23437 v -1.48437 h 1.23437 v -0.88282 q 0,-1.14843 0.60938,-1.70312 0.60937,-0.55469 1.85156,-0.55469 0.61719,0 1.39063,0.125 v 1.41406 q -0.32032,-0.0703 -0.64063,-0.0703 -0.5625,0 -0.79687,0.22656 -0.22657,0.21875 -0.22657,0.78125 v 0.66407 h 1.66407 v 1.48437 z"
         style="font-weight:bold;-inkscape-font-specification:'Liberation Sans Bold'"
         id="path158659" />
      <path
         d="m 252.13521,134.6369 q -1.22656,0 -1.91406,-0.66406 -0.6875,-0.67188 -0.6875,-1.88281 0,-1.3125 0.85156,-2 0.85937,-0.6875 2.48437,-0.70313 l 1.82032,-0.0312 v -0.42969 q 0,-0.82812 -0.28907,-1.22656 -0.28906,-0.40625 -0.94531,-0.40625 -0.60937,0 -0.89844,0.28125 -0.28125,0.27344 -0.35156,0.91406 l -2.28906,-0.10937 q 0.21094,-1.23438 1.125,-1.86719 0.92187,-0.64062 2.50781,-0.64062 1.60156,0 2.46875,0.78906 0.86719,0.78906 0.86719,2.24219 v 3.07812 q 0,0.71094 0.15625,0.98438 0.16406,0.26562 0.53906,0.26562 0.25,0 0.48438,-0.0469 v 1.1875 q -0.19532,0.0469 -0.35157,0.0859 -0.15625,0.0391 -0.3125,0.0625 -0.15625,0.0234 -0.33593,0.0391 -0.17188,0.0156 -0.40625,0.0156 -0.82813,0 -1.22657,-0.40625 -0.39062,-0.40625 -0.46875,-1.19531 h -0.0469 q -0.92188,1.66406 -2.78125,1.66406 z m 2.55469,-4.07031 -1.125,0.0156 q -0.76563,0.0312 -1.08594,0.17188 -0.32031,0.13281 -0.49219,0.41406 -0.16406,0.28125 -0.16406,0.75 0,0.60156 0.27344,0.89844 0.28125,0.28906 0.74218,0.28906 0.51563,0 0.9375,-0.28125 0.42969,-0.28125 0.67188,-0.77344 0.24219,-0.5 0.24219,-1.05468 z"
         style="font-weight:bold;-inkscape-font-specification:'Liberation Sans Bold'"
         id="path158661" />
      <path
         d="m 262.60396,134.6369 q -1.92188,0 -2.96875,-1.14062 -1.04688,-1.14844 -1.04688,-3.19532 0,-2.09375 1.05469,-3.25781 1.05469,-1.17187 2.99219,-1.17187 1.49219,0 2.46875,0.75 0.97656,0.75 1.22656,2.07031 l -2.21094,0.10937 q -0.0937,-0.64843 -0.46875,-1.03125 -0.375,-0.39062 -1.0625,-0.39062 -1.69531,0 -1.69531,2.83594 0,2.92187 1.72656,2.92187 0.625,0 1.04688,-0.39062 0.42187,-0.39844 0.52344,-1.17969 l 2.20312,0.10156 q -0.11719,0.86719 -0.625,1.54688 -0.5,0.67968 -1.32031,1.05468 -0.82031,0.36719 -1.84375,0.36719 z"
         style="font-weight:bold;-inkscape-font-specification:'Liberation Sans Bold'"
         id="path158663" />
      <path
         d="m 267.97896,124.50409 v -1.61719 h 2.19531 v 1.61719 z m 0,9.97656 v -8.45312 h 2.19531 v 8.45312 z"
         style="font-weight:bold;-inkscape-font-specification:'Liberation Sans Bold'"
         id="path158665" />
      <path
         d="m 277.90083,134.48065 v -4.74219 q 0,-2.22656 -1.50781,-2.22656 -0.79687,0 -1.28906,0.6875 -0.48438,0.67969 -0.48438,1.75 v 4.53125 h -2.19531 v -6.5625 q 0,-0.67969 -0.0234,-1.10937 -0.0156,-0.4375 -0.0391,-0.78125 h 2.09375 q 0.0234,0.14843 0.0625,0.79687 0.0391,0.64063 0.0391,0.88281 h 0.0312 q 0.44532,-0.96875 1.11719,-1.40625 0.67188,-0.4375 1.60156,-0.4375 1.34375,0 2.0625,0.82813 0.71875,0.82812 0.71875,2.42187 v 5.36719 z"
         style="font-weight:bold;-inkscape-font-specification:'Liberation Sans Bold'"
         id="path158667" />
      <path
         d="m 285.73677,137.87128 q -1.54687,0 -2.49219,-0.59375 -0.9375,-0.58594 -1.15625,-1.67969 l 2.19532,-0.25781 q 0.11718,0.50781 0.5,0.79687 0.39062,0.28906 1.01562,0.28906 0.91406,0 1.33594,-0.5625 0.42187,-0.5625 0.42187,-1.67187 v -0.44531 l 0.0156,-0.83594 h -0.0156 q -0.72656,1.55469 -2.71875,1.55469 -1.47656,0 -2.28906,-1.10938 -0.8125,-1.10937 -0.8125,-3.17187 0,-2.07032 0.83594,-3.19532 0.83594,-1.125 2.42969,-1.125 1.84375,0 2.55468,1.52344 h 0.0391 q 0,-0.27344 0.0312,-0.74219 0.0391,-0.46875 0.0781,-0.61718 h 2.07813 q -0.0469,0.84375 -0.0469,1.95312 v 6.24219 q 0,1.80469 -1.02344,2.72656 -1.02343,0.92188 -2.97656,0.92188 z m 1.83594,-7.73438 q 0,-1.30469 -0.46875,-2.03125 -0.46094,-0.73437 -1.32031,-0.73437 -1.75782,0 -1.75782,2.8125 0,2.75781 1.74219,2.75781 0.875,0 1.33594,-0.72656 0.46875,-0.73438 0.46875,-2.07813 z"
         style="font-weight:bold;-inkscape-font-specification:'Liberation Sans Bold'"
         id="path158669" />
      <path
         d="m 303.54146,132.0119 q 0,1.22656 -1.00781,1.92969 -1,0.69531 -2.77344,0.69531 -1.74219,0 -2.67188,-0.54687 -0.92187,-0.55469 -1.22656,-1.71875 l 1.92969,-0.28907 q 0.16406,0.60157 0.5625,0.85157 0.40625,0.25 1.40625,0.25 0.92187,0 1.34375,-0.23438 0.42187,-0.23437 0.42187,-0.73437 0,-0.40625 -0.34375,-0.64063 -0.33593,-0.24219 -1.14843,-0.40625 -1.85938,-0.36719 -2.50782,-0.67969 -0.64843,-0.32031 -0.99218,-0.82031 -0.33594,-0.50781 -0.33594,-1.24219 0,-1.21093 0.92969,-1.88281 0.9375,-0.67969 2.64843,-0.67969 1.50782,0 2.42188,0.58594 0.92187,0.58594 1.14844,1.69531 l -1.94532,0.20313 q -0.0937,-0.51563 -0.46093,-0.76563 -0.36719,-0.25781 -1.16407,-0.25781 -0.78125,0 -1.17187,0.20313 -0.39063,0.19531 -0.39063,0.66406 0,0.36719 0.29688,0.58594 0.30469,0.21093 1.01562,0.35156 0.99219,0.20312 1.75782,0.42187 0.77343,0.21094 1.23437,0.50782 0.46875,0.29687 0.74219,0.76562 0.28125,0.46094 0.28125,1.1875 z"
         style="font-weight:bold;-inkscape-font-specification:'Liberation Sans Bold'"
         id="path158671" />
      <path
         d="m 313.34615,130.24628 q 0,2.05468 -1.14063,3.22656 -1.14062,1.16406 -3.15625,1.16406 -1.97656,0 -3.10156,-1.17187 -1.125,-1.17188 -1.125,-3.21875 0,-2.03907 1.125,-3.20313 1.125,-1.17187 3.14844,-1.17187 2.07031,0 3.15625,1.13281 1.09375,1.125 1.09375,3.24219 z m -2.29688,0 q 0,-1.50782 -0.49219,-2.1875 -0.49218,-0.67969 -1.42968,-0.67969 -2,0 -2,2.86719 0,1.41406 0.48437,2.15625 0.49219,0.73437 1.41406,0.73437 2.02344,0 2.02344,-2.89062 z"
         style="font-weight:bold;-inkscape-font-specification:'Liberation Sans Bold'"
         id="path158673" />
      <path
         d="m 318.61177,134.6369 q -1.92187,0 -2.96875,-1.14062 -1.04687,-1.14844 -1.04687,-3.19532 0,-2.09375 1.05468,-3.25781 1.05469,-1.17187 2.99219,-1.17187 1.49219,0 2.46875,0.75 0.97656,0.75 1.22656,2.07031 l -2.21093,0.10937 q -0.0937,-0.64843 -0.46875,-1.03125 -0.375,-0.39062 -1.0625,-0.39062 -1.69532,0 -1.69532,2.83594 0,2.92187 1.72657,2.92187 0.625,0 1.04687,-0.39062 0.42188,-0.39844 0.52344,-1.17969 l 2.20312,0.10156 q -0.11718,0.86719 -0.625,1.54688 -0.5,0.67968 -1.32031,1.05468 -0.82031,0.36719 -1.84375,0.36719 z"
         style="font-weight:bold;-inkscape-font-specification:'Liberation Sans Bold'"
         id="path158675" />
      <path
         d="m 329.38521,134.48065 -2.25781,-3.82812 -0.94532,0.65625 v 3.17187 h -2.19531 V 122.8869 h 2.19531 v 6.64063 l 3.01563,-3.5 h 2.35937 l -2.96875,3.29687 3.19532,5.15625 z"
         style="font-weight:bold;-inkscape-font-specification:'Liberation Sans Bold'"
         id="path158677" />
      <path
         d="m 336.34615,134.6369 q -1.90625,0 -2.92969,-1.125 -1.02344,-1.13281 -1.02344,-3.29687 0,-2.09375 1.03906,-3.21875 1.03907,-1.125 2.94532,-1.125 1.82031,0 2.78125,1.21093 0.96093,1.20313 0.96093,3.53125 v 0.0625 h -5.42187 q 0,1.23438 0.45312,1.86719 0.46094,0.625 1.30469,0.625 1.16406,0 1.46875,-1.00781 l 2.07031,0.17969 q -0.89843,2.29687 -3.64843,2.29687 z m 0,-7.38281 q -0.77344,0 -1.19532,0.53906 -0.41406,0.53906 -0.4375,1.50781 h 3.28125 q -0.0625,-1.02343 -0.49218,-1.53125 -0.42969,-0.51562 -1.15625,-0.51562 z"
         style="font-weight:bold;-inkscape-font-specification:'Liberation Sans Bold'"
         id="path158679" />
      <path
         d="m 343.94771,134.62128 q -0.96875,0 -1.49219,-0.52344 -0.52344,-0.53125 -0.52344,-1.60156 v -4.98438 h -1.07031 v -1.48437 h 1.17969 l 0.6875,-1.98438 h 1.375 v 1.98438 h 1.60156 v 1.48437 h -1.60156 v 4.39063 q 0,0.61718 0.23437,0.91406 0.23438,0.28906 0.72657,0.28906 0.25781,0 0.73437,-0.10937 v 1.35937 q -0.8125,0.26563 -1.85156,0.26563 z"
         style="font-weight:bold;-inkscape-font-specification:'Liberation Sans Bold'"
         id="path158681" />
    </g>
    <path
       style="fill:none;fill-rule:evenodd;stroke:#000000;stroke-width:1.5;stroke-linecap:butt;stroke-linejoin:miter;stroke-miterlimit:4;stroke-dasharray:none;stroke-opacity:1"
       d="m 194.51087,13.090188 214.69768,0.150118 c 60.98083,-0.52668 65.54729,87.569794 -0.86234,87.201494 l -215.08483,-0.19377 c -5.74299,-0.713577 -10.51352,-5.997513 -10.25583,-12.231014 l 0.44307,-64.385923 c 0.21578,-4.156765 4.8301,-10.737079 11.06225,-10.540905 z"
       id="path55647"
       sodipodi:nodetypes="ccccccc" />
    <path
       style="fill:none;fill-rule:evenodd;stroke:#000000;stroke-width:1.5;stroke-linecap:butt;stroke-linejoin:miter;stroke-miterlimit:4;stroke-dasharray:none;stroke-opacity:1"
       d="m 201.86394,22.682009 208.89715,-0.05658 c 47.19581,-0.04637 48.07091,68.000787 0,67.815601 l -210.30865,0.148411 c -3.95067,-0.292651 -6.96344,-1.876296 -7.23422,-7.234226 l -0.21624,-53.662629 c 0.1676,-4.117564 3.79542,-7.098255 8.86196,-7.010579 z"
       id="path56917"
       sodipodi:nodetypes="ccccccc" />
    <rect
       style="fill:none;fill-rule:evenodd;stroke:#000000;stroke-width:1.5;stroke-linecap:round;stroke-linejoin:round;stroke-miterlimit:4;stroke-dasharray:none;stroke-dashoffset:0;stroke-opacity:1"
       id="rect57610"
       width="118.88319"
       height="36.858227"
       x="207.74998"
       y="38.261967" />
    <path
       id="rect57610-7"
       style="fill:none;fill-rule:evenodd;stroke:#000000;stroke-width:1.5;stroke-linecap:round;stroke-linejoin:round;stroke-miterlimit:4;stroke-dasharray:none"
       d="m 339.36139,38.313694 74.61436,0.131141 c 23.47477,0.06659 23.04815,36.756097 -0.51845,36.727086 h -74.09591 z"
       sodipodi:nodetypes="ccccc" />
    <circle
       style="fill:none;fill-rule:evenodd;stroke:#000000;stroke-width:1.5;stroke-linecap:round;stroke-linejoin:round;stroke-miterlimit:4;stroke-dasharray:none;stroke-dashoffset:0;stroke-opacity:1"
       id="path1147-5-6"
       cx="223.52829"
       cy="56.461884"
       r="11.23819" />
    <circle
       style="fill:#000000;fill-opacity:1;fill-rule:evenodd;stroke:none;stroke-width:0.613898;stroke-linecap:round;stroke-linejoin:round;stroke-miterlimit:4;stroke-dasharray:none;stroke-dashoffset:0;stroke-opacity:1"
       id="path1147-5-6-1"
       cx="223.83426"
       cy="56.518074"
       r="4.5994005" />
    <circle
       style="fill:none;fill-rule:evenodd;stroke:#000000;stroke-width:1.5;stroke-linecap:round;stroke-linejoin:round;stroke-miterlimit:4;stroke-dasharray:none;stroke-dashoffset:0;stroke-opacity:1"
       id="path1147-5-6-2"
       cx="252.09012"
       cy="56.527016"
       r="11.23819" />
    <circle
       style="fill:#000000;fill-opacity:1;fill-rule:evenodd;stroke:none;stroke-width:0.613898;stroke-linecap:round;stroke-linejoin:round;stroke-miterlimit:4;stroke-dasharray:none;stroke-dashoffset:0;stroke-opacity:1"
       id="path1147-5-6-1-9"
       cx="252.39609"
       cy="56.583206"
       r="4.5994005" />
    <circle
       style="fill:none;fill-rule:evenodd;stroke:#000000;stroke-width:1.5;stroke-linecap:round;stroke-linejoin:round;stroke-miterlimit:4;stroke-dasharray:none;stroke-dashoffset:0;stroke-opacity:1"
       id="path1147-5-6-3"
       cx="280.53003"
       cy="56.685032"
       r="11.23819" />
    <circle
       style="fill:#000000;fill-opacity:1;fill-rule:evenodd;stroke:none;stroke-width:0.613898;stroke-linecap:round;stroke-linejoin:round;stroke-miterlimit:4;stroke-dasharray:none;stroke-dashoffset:0;stroke-opacity:1"
       id="path1147-5-6-1-1"
       cx="280.836"
       cy="56.741222"
       r="4.5994005" />
    <circle
       style="fill:none;fill-rule:evenodd;stroke:#000000;stroke-width:1.5;stroke-linecap:round;stroke-linejoin:round;stroke-miterlimit:4;stroke-dasharray:none;stroke-dashoffset:0;stroke-opacity:1"
       id="path1147-5-6-9"
       cx="308.49988"
       cy="56.640747"
       r="11.23819" />
    <circle
       style="fill:#000000;fill-opacity:1;fill-rule:evenodd;stroke:none;stroke-width:0.613898;stroke-linecap:round;stroke-linejoin:round;stroke-miterlimit:4;stroke-dasharray:none;stroke-dashoffset:0;stroke-opacity:1"
       id="path1147-5-6-1-4"
       cx="308.80585"
       cy="56.696938"
       r="4.5994005" />
    <circle
       style="fill:none;fill-rule:evenodd;stroke:#000000;stroke-width:1.5;stroke-linecap:round;stroke-linejoin:round;stroke-miterlimit:4;stroke-dasharray:none;stroke-dashoffset:0;stroke-opacity:1"
       id="path1147-5-6-7"
       cx="354.96268"
       cy="56.452644"
       r="11.23819" />
    <circle
       style="fill:#000000;fill-opacity:1;fill-rule:evenodd;stroke:none;stroke-width:0.613898;stroke-linecap:round;stroke-linejoin:round;stroke-miterlimit:4;stroke-dasharray:none;stroke-dashoffset:0;stroke-opacity:1"
       id="path1147-5-6-1-8"
       cx="355.26865"
       cy="56.508835"
       r="4.5994005" />
    <circle
       style="fill:none;fill-rule:evenodd;stroke:#000000;stroke-width:1.5;stroke-linecap:round;stroke-linejoin:round;stroke-miterlimit:4;stroke-dasharray:none;stroke-dashoffset:0;stroke-opacity:1"
       id="path1147-5-6-4"
       cx="382.9758"
       cy="56.567875"
       r="11.23819" />
    <circle
       style="fill:#000000;fill-opacity:1;fill-rule:evenodd;stroke:none;stroke-width:0.613898;stroke-linecap:round;stroke-linejoin:round;stroke-miterlimit:4;stroke-dasharray:none;stroke-dashoffset:0;stroke-opacity:1"
       id="path1147-5-6-1-5"
       cx="383.28177"
       cy="56.624065"
       r="4.5994005" />
    <circle
       style="fill:none;fill-rule:evenodd;stroke:#000000;stroke-width:1.5;stroke-linecap:round;stroke-linejoin:round;stroke-miterlimit:4;stroke-dasharray:none;stroke-dashoffset:0;stroke-opacity:1"
       id="path1147-5-6-0"
       cx="411.29352"
       cy="56.54348"
       r="11.23819" />
    <circle
       style="fill:#000000;fill-opacity:1;fill-rule:evenodd;stroke:none;stroke-width:0.613898;stroke-linecap:round;stroke-linejoin:round;stroke-miterlimit:4;stroke-dasharray:none;stroke-dashoffset:0;stroke-opacity:1"
       id="path1147-5-6-1-3"
       cx="411.59949"
       cy="56.59967"
       r="4.5994005" />
    <g
       aria-label="1    2     3    4        5     6    7"
       id="text3134-6-3"
       style="font-size:16px;line-height:125%;font-family:'Liberation Sans';-inkscape-font-specification:'Liberation Sans';letter-spacing:0px;word-spacing:0px;fill:#fffffe;fill-opacity:1;stroke:none;stroke-width:1px;stroke-opacity:1;stop-color:#000000"
       transform="translate(0.00609251,0.13782788)">
      <path
         id="path158563-2"
         style="font-weight:bold;-inkscape-font-specification:'Liberation Sans Bold';fill:#fffffe;fill-opacity:1;stroke:none;stroke-opacity:1"
         sodipodi:type="inkscape:offset"
         inkscape:radius="2.6245785"
         inkscape:original="M 223.39844 28.050781 L 220.64062 29.839844 L 220.64062 31.566406 L 223.28125 29.917969 L 223.28125 37.425781 L 220.55469 37.425781 L 220.55469 39.058594 L 228 39.058594 L 228 37.425781 L 225.47656 37.425781 L 225.47656 28.050781 L 223.39844 28.050781 z "
         d="m 223.39844,25.425781 a 2.6248409,2.6248409 0 0 0 -1.42774,0.423828 l -2.75781,1.789063 a 2.6248409,2.6248409 0 0 0 -1.19727,2.201172 v 1.726562 a 2.6248409,2.6248409 0 0 0 2.64063,2.261719 v 0.972656 h -0.10156 a 2.6248409,2.6248409 0 0 0 -2.625,2.625 v 1.632813 a 2.6248409,2.6248409 0 0 0 2.625,2.625 H 228 a 2.6248409,2.6248409 0 0 0 2.625,-2.625 v -1.632813 a 2.6248409,2.6248409 0 0 0 -2.52344,-2.523437 v -6.851563 a 2.6248409,2.6248409 0 0 0 -2.625,-2.625 z" />
      <path
         id="path158565-0"
         style="font-weight:bold;-inkscape-font-specification:'Liberation Sans Bold';fill:#fffffe;fill-opacity:1;stroke:none;stroke-opacity:1"
         sodipodi:type="inkscape:offset"
         inkscape:radius="2.6985788"
         inkscape:original="M 250.625 27.886719 C 249.52604 27.886719 248.65625 28.154948 248.01562 28.691406 C 247.38021 29.227864 247 30.00651 246.875 31.027344 L 249.08594 31.152344 C 249.15886 30.647136 249.31771 30.269531 249.5625 30.019531 C 249.8125 29.764323 250.17188 29.636719 250.64062 29.636719 C 251.60417 29.636719 252.08594 30.115885 252.08594 31.074219 C 252.08594 31.464844 251.92969 31.863281 251.61719 32.269531 C 251.3099 32.675781 250.77083 33.191406 250 33.816406 C 249.19791 34.467448 248.53125 35.092448 248 35.691406 C 247.47395 36.290364 247.0677 36.904948 246.78125 37.535156 L 246.78125 39.058594 L 254.48438 39.058594 L 254.48438 37.253906 L 249.375 37.253906 C 249.52083 36.915364 249.74219 36.597656 250.03906 36.300781 C 250.34114 36.003906 250.67448 35.709635 251.03906 35.417969 C 251.40364 35.126302 251.77864 34.826823 252.16406 34.519531 C 252.55469 34.212239 252.90886 33.884114 253.22656 33.535156 C 253.54427 33.18099 253.80469 32.795573 254.00781 32.378906 C 254.21094 31.96224 254.3125 31.496094 254.3125 30.980469 C 254.3125 30.001302 253.9948 29.240885 253.35938 28.699219 C 252.72396 28.157552 251.8125 27.886719 250.625 27.886719 z "
         d="m 250.625,25.1875 c -1.53806,0 -3.11883,0.411449 -4.3418,1.435547 a 2.6988487,2.6988487 0 0 0 -0.008,0.0059 c -1.21345,1.024485 -1.89301,2.558533 -2.07812,4.070313 a 2.6988487,2.6988487 0 0 0 2.16601,2.841797 c -0.11461,0.120997 -0.27448,0.237235 -0.38281,0.359375 a 2.6988487,2.6988487 0 0 0 -0.008,0.0098 c -0.67546,0.769074 -1.23776,1.604278 -1.64844,2.507813 a 2.6988487,2.6988487 0 0 0 -0.24219,1.117187 v 1.523438 a 2.6988487,2.6988487 0 0 0 2.69922,2.699218 h 7.70313 a 2.6988487,2.6988487 0 0 0 2.69921,-2.699218 v -1.804688 a 2.6988487,2.6988487 0 0 0 -1.93554,-1.935547 c 0.47117,-0.528453 0.87503,-1.120848 1.18554,-1.757812 0.39529,-0.810812 0.57813,-1.710103 0.57813,-2.580078 0,-1.562887 -0.65598,-3.271518 -1.90234,-4.333985 C 253.84236,25.566408 252.22281,25.1875 250.625,25.1875 Z m 1.13281,6.349609 c 0.0209,-0.14494 0.0297,0.06751 -0.26758,0.371094 -0.19389,0.197933 -0.3081,0.185154 -0.48437,0.244141 a 2.6988487,2.6988487 0 0 0 0.75195,-0.615235 z" />
      <path
         id="path158567-6"
         style="font-weight:bold;-inkscape-font-specification:'Liberation Sans Bold';fill:#fffffe;fill-opacity:1;stroke:none;stroke-opacity:1"
         sodipodi:type="inkscape:offset"
         inkscape:radius="2.6225119"
         inkscape:original="M 281.71875 27.886719 C 280.63542 27.886719 279.75782 28.154948 279.08594 28.691406 C 278.41406 29.227864 278.02083 29.970052 277.90625 30.917969 L 280.10156 31.074219 C 280.14323 30.615885 280.30208 30.261719 280.57812 30.011719 C 280.85938 29.761719 281.22657 29.636719 281.67969 29.636719 C 282.16407 29.636719 282.53125 29.766927 282.78125 30.027344 C 283.03646 30.282552 283.16406 30.636719 283.16406 31.089844 C 283.16406 31.56901 283.00521 31.938802 282.6875 32.199219 C 282.36979 32.454427 281.89583 32.582031 281.26562 32.582031 L 280.54688 32.582031 L 280.54688 34.355469 L 281.3125 34.355469 C 282.01041 34.355469 282.53646 34.485677 282.89062 34.746094 C 283.24479 35.00651 283.42188 35.38151 283.42188 35.871094 C 283.42188 36.407552 283.27604 36.80599 282.98438 37.066406 C 282.69271 37.326823 282.28385 37.457031 281.75781 37.457031 C 280.69531 37.457031 280.09375 36.928386 279.95312 35.871094 L 277.71875 36.066406 C 277.83854 37.092448 278.24739 37.878906 278.94531 38.425781 C 279.64323 38.967448 280.58333 39.238281 281.76562 39.238281 C 283.01563 39.238281 283.97916 38.957031 284.65625 38.394531 C 285.33333 37.832031 285.67188 37.035156 285.67188 36.003906 C 285.67188 35.295573 285.44271 34.714844 284.98438 34.261719 C 284.53125 33.803385 283.88281 33.524739 283.03906 33.425781 L 283.03906 33.394531 C 283.79948 33.248698 284.3802 32.954427 284.78125 32.511719 C 285.1875 32.069011 285.39062 31.503906 285.39062 30.816406 C 285.39063 29.89974 285.0651 29.183594 284.41406 28.667969 C 283.76823 28.147135 282.86979 27.886719 281.71875 27.886719 z "
         d="m 281.71875,25.263672 c -1.51621,0 -3.06058,0.41363 -4.26953,1.378906 -1.20365,0.961044 -1.96569,2.46526 -2.14649,3.960938 a 2.6227741,2.6227741 0 0 0 2.25196,2.84375 l -0.0645,0.0059 a 2.6227741,2.6227741 0 0 0 -2.37695,2.917969 c 0.18159,1.555393 0.9475,3.126074 2.21484,4.11914 a 2.6227741,2.6227741 0 0 0 0.01,0.0078 c 1.26455,0.981437 2.84494,1.363281 4.42773,1.363281 1.64339,0 3.27918,-0.379835 4.56641,-1.449219 1.283,-1.065878 1.96289,-2.802988 1.96289,-4.408203 0,-0.96568 -0.38306,-1.944539 -0.93945,-2.796875 0.38958,-0.763435 0.6582,-1.583236 0.6582,-2.390625 2e-5,-1.533034 -0.72561,-3.206952 -1.96289,-4.193359 -1.23709,-0.993628 -2.78894,-1.359375 -4.33203,-1.359375 z m 0.99414,6.048828 c -0.002,0.01885 -0.10866,0.401361 -0.375,0.642578 l -0.0176,0.01758 c -0.24141,0.214581 -0.61144,0.28711 -0.64062,0.28711 9.3e-4,0 -0.0479,-0.02674 -0.0508,-0.02734 a 2.6227741,2.6227741 0 0 0 1.08398,-0.919922 z m 4.11523,1.083984 0.0215,0.02148 c -0.004,-0.0041 -0.01,-0.0057 -0.0137,-0.0098 -0.003,-0.0033 -0.004,-0.0084 -0.008,-0.01172 z m -5.07031,2.4375 c -0.0963,0 0.20812,0.0148 0.48242,0.25586 0.27431,0.241056 0.32591,0.536362 0.3125,0.435547 a 2.6227741,2.6227741 0 0 0 -0.83593,-0.669922 c -0.002,-2.92e-4 0.0484,-0.02148 0.041,-0.02148 z" />
      <path
         id="path158569-1"
         style="font-weight:bold;-inkscape-font-specification:'Liberation Sans Bold';fill:#fffffe;fill-opacity:1;stroke:none;stroke-opacity:1"
         sodipodi:type="inkscape:offset"
         inkscape:radius="2.7442696"
         inkscape:original="M 308.92188 28.050781 L 304.27344 35.167969 L 304.27344 36.816406 L 309.28125 36.816406 L 309.28125 39.058594 L 311.375 39.058594 L 311.375 36.816406 L 312.84375 36.816406 L 312.84375 35.183594 L 311.375 35.183594 L 311.375 28.050781 L 308.92188 28.050781 z M 309.35156 30.035156 C 309.3411 30.128906 309.32549 30.339844 309.30469 30.667969 C 309.28909 30.996094 309.28125 31.300781 309.28125 31.582031 L 309.28125 35.183594 L 306.0625 35.183594 L 308.61719 31.300781 C 308.97135 30.748698 309.21614 30.326823 309.35156 30.035156 z "
         d="m 308.92188,25.306641 a 2.744544,2.744544 0 0 0 -2.29688,1.24414 l -4.64844,7.117188 a 2.744544,2.744544 0 0 0 -0.44726,1.5 v 1.648437 a 2.744544,2.744544 0 0 0 2.74414,2.744141 h 2.76562 a 2.744544,2.744544 0 0 0 2.24219,2.242187 h 2.09375 a 2.744544,2.744544 0 0 0 2.74414,-2.74414 v -0.773438 a 2.744544,2.744544 0 0 0 1.46875,-1.46875 v -1.632812 a 2.744544,2.744544 0 0 0 -1.46875,-1.46875 v -5.664063 a 2.744544,2.744544 0 0 0 -2.74414,-2.74414 z" />
      <path
         id="path158571-5"
         style="font-weight:bold;-inkscape-font-specification:'Liberation Sans Bold';fill:#fffffe;fill-opacity:1;stroke:none;stroke-opacity:1"
         sodipodi:type="inkscape:offset"
         inkscape:radius="2.5723419"
         inkscape:original="M 349.6875 28.050781 L 349.30469 34.246094 L 351.44531 34.246094 C 351.83073 33.772136 352.32812 33.535156 352.9375 33.535156 C 353.48958 33.535156 353.91927 33.709636 354.22656 34.058594 C 354.53386 34.402344 354.6875 34.863281 354.6875 35.441406 C 354.6875 36.097656 354.52344 36.600261 354.19531 36.949219 C 353.87239 37.298177 353.4375 37.472656 352.89062 37.472656 C 352.44792 37.472656 352.08073 37.365886 351.78906 37.152344 C 351.4974 36.938802 351.29427 36.597656 351.17969 36.128906 L 348.98438 36.308594 C 349.14063 37.251302 349.54948 37.972656 350.21094 38.472656 C 350.8776 38.967448 351.76302 39.214844 352.86719 39.214844 C 354.13281 39.214844 355.1276 38.871094 355.85156 38.183594 C 356.58073 37.490886 356.94531 36.561198 356.94531 35.394531 C 356.94531 34.274739 356.63021 33.389323 356 32.738281 C 355.375 32.087239 354.53907 31.761719 353.49219 31.761719 C 352.69531 31.761719 352.03125 31.996094 351.5 32.464844 L 351.67969 29.683594 L 356.30469 29.683594 L 356.30469 28.050781 L 349.6875 28.050781 z "
         d="m 349.6875,25.478516 a 2.5725992,2.5725992 0 0 0 -2.56836,2.414062 l -0.38281,6.195313 a 2.5725992,2.5725992 0 0 0 0.22851,0.634765 2.5725992,2.5725992 0 0 0 -0.51757,2.00586 c 0.23999,1.447993 1.00877,2.88668 2.21289,3.796875 a 2.5725992,2.5725992 0 0 0 0.0176,0.01367 c 1.21243,0.899856 2.70105,1.248047 4.18946,1.248047 1.73139,0 3.48914,-0.535361 4.75586,-1.738281 1.25198,-1.189377 1.89453,-2.95173 1.89453,-4.654297 0,-1.600908 -0.52728,-3.261005 -1.66797,-4.441406 -0.0409,-0.04244 -0.10423,-0.05477 -0.14649,-0.0957 a 2.5725992,2.5725992 0 0 0 1.17383,-1.173828 v -1.632813 a 2.5725992,2.5725992 0 0 0 -2.57226,-2.572265 z m 3.20312,9.421875 c -0.0291,0 0.20911,0.02287 0.41797,0.175781 0.30264,0.221579 0.38557,0.508611 0.36914,0.441406 a 2.5725992,2.5725992 0 0 0 -0.82617,-0.595703 c 0.004,-0.0011 0.039,-0.02148 0.0391,-0.02148 z" />
      <path
         id="path158573-5"
         style="font-weight:bold;-inkscape-font-specification:'Liberation Sans Bold';fill:#fffffe;fill-opacity:1;stroke:none;stroke-opacity:1"
         sodipodi:type="inkscape:offset"
         inkscape:radius="2.6999609"
         inkscape:original="M 384.28906 27.886719 C 382.97656 27.886719 381.96615 28.384114 381.25781 29.378906 C 380.55469 30.36849 380.20312 31.845052 380.20312 33.808594 C 380.20313 35.595052 380.54948 36.944011 381.24219 37.855469 C 381.94011 38.761719 382.9375 39.214844 384.23438 39.214844 C 385.39063 39.214844 386.29688 38.88151 386.95312 38.214844 C 387.60938 37.548177 387.9375 36.628906 387.9375 35.457031 C 387.9375 34.384115 387.65105 33.535156 387.07812 32.910156 C 386.50521 32.285156 385.72657 31.972656 384.74219 31.972656 C 384.21615 31.972656 383.74479 32.076823 383.32812 32.285156 C 382.91146 32.49349 382.58594 32.792969 382.35156 33.183594 C 382.35156 31.985677 382.51823 31.092448 382.85156 30.503906 C 383.1901 29.915364 383.65365 29.621094 384.24219 29.621094 C 384.92969 29.621094 385.37239 29.983073 385.57031 30.707031 L 387.64062 30.417969 C 387.41666 29.553385 387.03385 28.915364 386.49219 28.503906 C 385.95573 28.092448 385.22136 27.886719 384.28906 27.886719 z M 384.10938 33.589844 C 384.61458 33.589844 385.01042 33.75651 385.29688 34.089844 C 385.58854 34.417969 385.73438 34.894531 385.73438 35.519531 C 385.73438 36.139323 385.59635 36.626302 385.32031 36.980469 C 385.04427 37.329427 384.65886 37.503906 384.16406 37.503906 C 383.66927 37.503906 383.26823 37.295573 382.96094 36.878906 C 382.65886 36.457031 382.50781 35.925781 382.50781 35.285156 C 382.50781 34.77474 382.65365 34.365886 382.94531 34.058594 C 383.23698 33.746094 383.625 33.589844 384.10938 33.589844 z "
         d="m 384.28906,25.1875 c -1.99463,0 -4.06511,0.988376 -5.23047,2.625 a 2.7002309,2.7002309 0 0 0 -0.002,0.002 c -1.19147,1.676903 -1.55273,3.708315 -1.55273,5.994141 10e-6,2.135421 0.38098,4.091657 1.58789,5.679687 a 2.7002309,2.7002309 0 0 0 0.0117,0.01367 c 1.19118,1.546757 3.20507,2.412109 5.13086,2.412109 1.67516,0 3.4302,-0.573051 4.64257,-1.804687 1.21111,-1.230314 1.75977,-2.976484 1.75977,-4.652344 0,-1.176287 -0.38123,-2.335445 -0.98828,-3.375 a 2.7002309,2.7002309 0 0 0 0.60547,-2.341797 c -0.32983,-1.273271 -1.00414,-2.526901 -2.125,-3.380859 C 386.9941,25.49123 385.61659,25.1875 384.28906,25.1875 Z m -0.125,9.617188 c 0.2631,0 0.86713,0.332214 0.97071,0.472656 l 0.0215,0.0293 c 0.0745,0.104069 0.0508,0.194733 0.0508,-0.02148 0,0.0038 -0.0852,0.383622 -0.29687,0.619141 -0.22084,0.228033 -0.70566,0.384765 -0.80078,0.384765 -0.0876,0 -0.61996,-0.176893 -0.84961,-0.433593 -0.21166,-0.275473 -0.22461,-0.525194 -0.22461,-0.335938 0,0.218931 -0.0371,0.0489 0.15625,-0.199219 l 0.0117,-0.01562 c 0.21093,-0.266639 0.82103,-0.500001 0.96094,-0.5 z" />
      <path
         id="path158575-4"
         style="font-weight:bold;-inkscape-font-specification:'Liberation Sans Bold';fill:#fffffe;fill-opacity:1;stroke:none;stroke-opacity:1"
         sodipodi:type="inkscape:offset"
         inkscape:radius="2.8079698"
         inkscape:original="M 406.98438 28.050781 L 406.98438 29.855469 L 412.45312 29.855469 C 411.26042 31.584635 410.4375 32.894531 409.98438 33.785156 C 409.53125 34.670573 409.18489 35.542969 408.94531 36.402344 C 408.70573 37.25651 408.58594 38.141927 408.58594 39.058594 L 410.875 39.058594 C 410.875 38.183594 410.96875 37.355469 411.15625 36.574219 C 411.34896 35.787761 411.60937 35.02474 411.9375 34.285156 C 412.26562 33.540364 412.64844 32.800781 413.08594 32.066406 C 413.52865 31.332031 413.9974 30.574219 414.49219 29.792969 L 414.49219 28.050781 L 406.98438 28.050781 z "
         d="m 406.98438,25.242188 a 2.8082506,2.8082506 0 0 0 -2.8086,2.808593 v 1.804688 a 2.8082506,2.8082506 0 0 0 2.8086,2.808593 h 0.4375 c -0.49164,0.98253 -0.89908,1.975018 -1.17969,2.980469 -0.31012,1.105653 -0.46485,2.252766 -0.46485,3.414063 a 2.8082506,2.8082506 0 0 0 2.8086,2.808594 h 2.28906 a 2.8082506,2.8082506 0 0 0 2.80859,-2.808594 c 0,-0.674431 0.0712,-1.278198 0.20313,-1.828125 0.15315,-0.621971 0.35773,-1.221852 0.61719,-1.806641 a 2.8082506,2.8082506 0 0 0 0.004,-0.0059 c 0.27976,-0.635006 0.60838,-1.273081 0.99024,-1.914063 0.42917,-0.711716 0.88525,-1.448033 1.36718,-2.208984 a 2.8082506,2.8082506 0 0 0 0.43555,-1.501953 v -1.742188 a 2.8082506,2.8082506 0 0 0 -2.80859,-2.808593 z" />
    </g>
    <g
       aria-label="1    2     3    4        5     6    7"
       id="text3134-6"
       style="font-size:16px;line-height:125%;font-family:'Liberation Sans';-inkscape-font-specification:'Liberation Sans';letter-spacing:0px;word-spacing:0px;stroke:#000000;stroke-width:1px;stop-color:#000000">
      <path
         d="m 220.55453,39.059288 v -1.632812 h 2.72657 v -7.507813 l -2.64063,1.648438 v -1.726563 l 2.75781,-1.789062 h 2.07813 v 9.375 h 2.52344 v 1.632812 z"
         style="font-weight:bold;-inkscape-font-specification:'Liberation Sans Bold';stroke:none"
         id="path158563" />
      <path
         d="m 246.7811,39.059288 v -1.523437 q 0.42968,-0.945313 1.21875,-1.84375 0.79687,-0.898438 2,-1.875 1.15625,-0.9375 1.61718,-1.546875 0.46875,-0.609375 0.46875,-1.195313 0,-1.4375 -1.44531,-1.4375 -0.70312,0 -1.07812,0.382813 -0.36719,0.375 -0.47657,1.132812 l -2.21093,-0.125 q 0.1875,-1.53125 1.14062,-2.335937 0.96094,-0.804688 2.60938,-0.804688 1.78125,0 2.73437,0.8125 0.95313,0.8125 0.95313,2.28125 0,0.773438 -0.30469,1.398438 -0.30469,0.625 -0.78125,1.15625 -0.47656,0.523437 -1.0625,0.984375 -0.57813,0.460937 -1.125,0.898437 -0.54688,0.4375 -1,0.882813 -0.44531,0.445312 -0.66406,0.953125 h 5.10937 v 1.804687 z"
         style="font-weight:bold;-inkscape-font-specification:'Liberation Sans Bold';stroke:none"
         id="path158565" />
      <path
         d="m 285.67172,36.004601 q 0,1.546875 -1.01562,2.390625 -1.01563,0.84375 -2.89063,0.84375 -1.77344,0 -2.82031,-0.8125 -1.04688,-0.820313 -1.22656,-2.359375 l 2.23437,-0.195313 q 0.21094,1.585938 1.80469,1.585938 0.78906,0 1.22656,-0.390625 0.4375,-0.390625 0.4375,-1.195313 0,-0.734375 -0.53125,-1.125 -0.53125,-0.390625 -1.57812,-0.390625 h -0.76563 v -1.773437 h 0.71875 q 0.94531,0 1.42188,-0.382813 0.47656,-0.390625 0.47656,-1.109375 0,-0.679687 -0.38281,-1.0625 -0.375,-0.390625 -1.10157,-0.390625 -0.67968,0 -1.10156,0.375 -0.41406,0.375 -0.47656,1.0625 l -2.19531,-0.15625 q 0.17187,-1.421875 1.17968,-2.226562 1.00782,-0.804688 2.63282,-0.804688 1.72656,0 2.69531,0.78125 0.97656,0.773438 0.97656,2.148438 0,1.03125 -0.60937,1.695312 -0.60157,0.664063 -1.74219,0.882813 v 0.03125 q 1.26562,0.148437 1.94531,0.835937 0.6875,0.679688 0.6875,1.742188 z"
         style="font-weight:bold;-inkscape-font-specification:'Liberation Sans Bold';stroke:none"
         id="path158567" />
      <path
         d="m 311.37485,36.817101 v 2.242187 h -2.09375 v -2.242187 h -5.00782 v -1.648438 l 4.64844,-7.117187 h 2.45313 v 7.132812 h 1.46875 v 1.632813 z m -2.09375,-5.234375 q 0,-0.421875 0.0234,-0.914063 0.0312,-0.492187 0.0469,-0.632812 -0.20313,0.4375 -0.73438,1.265625 l -2.55468,3.882812 h 3.21875 z"
         style="font-weight:bold;-inkscape-font-specification:'Liberation Sans Bold';stroke:none"
         id="path158569" />
      <path
         d="m 356.94516,35.395226 q 0,1.75 -1.09375,2.789062 -1.08594,1.03125 -2.98438,1.03125 -1.65625,0 -2.65625,-0.742187 -0.99218,-0.75 -1.22656,-2.164063 l 2.19531,-0.179687 q 0.17188,0.703125 0.60938,1.023437 0.4375,0.320313 1.10156,0.320313 0.82031,0 1.30469,-0.523438 0.49219,-0.523437 0.49219,-1.507812 0,-0.867188 -0.46094,-1.382813 -0.46094,-0.523437 -1.28906,-0.523437 -0.91407,0 -1.49219,0.710937 h -2.14063 l 0.38282,-6.195312 h 6.61718 v 1.632812 h -4.625 l -0.17968,2.78125 q 0.79687,-0.703125 1.99218,-0.703125 1.57032,0 2.50782,0.976563 0.94531,0.976562 0.94531,2.65625 z"
         style="font-weight:bold;-inkscape-font-specification:'Liberation Sans Bold';stroke:none"
         id="path158571" />
      <path
         d="m 387.93735,35.457726 q 0,1.757812 -0.98438,2.757812 -0.98437,1 -2.71875,1 -1.94531,0 -2.99219,-1.359375 -1.03906,-1.367187 -1.03906,-4.046875 0,-2.945312 1.05469,-4.429687 1.0625,-1.492188 3.03125,-1.492188 1.39844,0 2.20312,0.617188 0.8125,0.617187 1.14844,1.914062 l -2.07031,0.289063 q -0.29688,-1.085938 -1.32813,-1.085938 -0.88281,0 -1.39062,0.882813 -0.5,0.882812 -0.5,2.679687 0.35156,-0.585937 0.97656,-0.898437 0.625,-0.3125 1.41406,-0.3125 1.47657,0 2.33594,0.9375 0.85938,0.9375 0.85938,2.546875 z m -2.20313,0.0625 q 0,-0.9375 -0.4375,-1.429688 -0.42969,-0.5 -1.1875,-0.5 -0.72656,0 -1.16406,0.46875 -0.4375,0.460938 -0.4375,1.226563 0,0.960937 0.45312,1.59375 0.46094,0.625 1.20313,0.625 0.74219,0 1.15625,-0.523438 0.41406,-0.53125 0.41406,-1.460937 z"
         style="font-weight:bold;-inkscape-font-specification:'Liberation Sans Bold';stroke:none"
         id="path158573" />
      <path
         d="m 414.49203,29.793663 q -0.74218,1.171875 -1.40625,2.273438 -0.65625,1.101562 -1.14843,2.21875 -0.49219,1.109375 -0.78125,2.289062 -0.28125,1.171875 -0.28125,2.484375 h -2.28907 q 0,-1.375 0.35938,-2.65625 0.35937,-1.289062 1.03906,-2.617187 0.67969,-1.335938 2.46875,-3.929688 h -5.46875 v -1.804687 h 7.50781 z"
         style="font-weight:bold;-inkscape-font-specification:'Liberation Sans Bold';stroke:none"
         id="path158575" />
    </g>
  </g>
</svg>
